<svg width="19" height="19" viewBox="0 0 19 19" fill="none" xmlns="http://www.w3.org/2000/svg">
<path fill-rule="evenodd" clip-rule="evenodd" d="M0 5C0 2.23858 2.23858 0 5 0H14C16.7614 0 19 2.23858 19 5V14C19 16.7614 16.7614 19 14 19H5C2.23858 19 0 16.7614 0 14V5ZM6.65 9.5C6.65 11.074 7.92599 12.35 9.5 12.35C11.074 12.35 12.35 11.074 12.35 9.5C12.35 7.92599 11.074 6.65 9.5 6.65C7.92599 6.65 6.65 7.92599 6.65 9.5ZM9.5 4.75C6.87665 4.75 4.75 6.87665 4.75 9.5C4.75 12.1234 6.87665 14.25 9.5 14.25C12.1234 14.25 14.25 12.1234 14.25 9.5C14.25 6.87665 12.1234 4.75 9.5 4.75ZM15.675 1.9C14.888 1.9 14.25 2.53799 14.25 3.325C14.25 4.11201 14.888 4.75 15.675 4.75C16.462 4.75 17.1 4.11201 17.1 3.325C17.1 2.53799 16.462 1.9 15.675 1.9Z" fill="#0A0707"/>
</svg>
